# Blender 5.0.1
# www.blender.org
mtllib Island_Concrete.mtl
o Plane.001
v -20.000000 5.000000 20.000000
v 20.000000 5.000000 20.000000
v -20.000000 5.000000 -20.000000
v 20.000000 5.000000 -20.000000
v -20.000000 5.000000 -20.000000
v -20.000000 5.000000 20.000000
v 20.000000 5.000000 20.000000
v 20.000000 5.000000 -20.000000
v -20.000000 5.000000 -20.000000
v -20.000000 5.000000 20.000000
v 20.000000 5.000000 20.000000
v 20.000000 5.000000 -20.000000
v -20.000000 25.000000 -20.000000
v -20.000000 25.000000 20.000000
v 20.000000 25.000000 20.000000
v 20.000000 25.000000 -20.000000
v -20.000000 25.000000 -20.000000
v 20.000000 25.000000 -20.000000
v -20.000000 5.050000 -20.000000
v -20.000000 5.050000 20.000000
v 20.000000 5.050000 20.000000
v 20.000000 5.050000 -20.000000
v -20.000000 5.050000 0.000000
v 20.000000 5.050000 0.000000
v 0.000000 5.050000 20.000000
v 0.000000 5.050000 -20.000000
v 0.000000 5.050000 0.000000
v -20.000000 5.050000 10.000000
v 20.000000 5.050000 10.000000
v 0.000000 5.050000 10.000000
v 20.000000 5.050000 -10.000000
v -20.000000 5.050000 -10.000000
v 0.000000 5.050000 -10.000000
v -10.000000 5.050000 -20.000000
v -10.000000 5.050000 0.000000
v -10.000000 5.050000 20.000000
v -10.000000 5.050000 10.000000
v -10.000000 5.050000 -10.000000
v 10.000000 5.050000 20.000000
v 10.000000 5.050000 -20.000000
v 10.000000 5.050000 0.000000
v 10.000000 5.050000 10.000000
v 10.000000 5.050000 -10.000000
v -20.000000 4.975000 20.000000
v 20.000000 4.975000 20.000000
v -20.000000 4.975000 -20.000000
v 20.000000 4.975000 -20.000000
v -20.000000 4.975000 -20.000000
v -20.000000 4.975000 20.000000
v 20.000000 4.975000 20.000000
v 20.000000 4.975000 -20.000000
v -19.646446 4.982322 -20.000000
v -19.711325 4.985566 19.711325
v 19.711325 4.985566 19.711325
v 19.646446 4.982322 -20.000000
v -19.500000 25.000000 -20.000000
v -19.646446 25.000000 19.646446
v 19.646446 25.000000 19.646446
v 19.500000 25.000000 -20.000000
v -20.000000 25.000000 -20.500000
v 20.000000 25.000000 -20.500000
v -19.711325 5.035566 -19.711325
v -19.711325 5.035566 19.711325
v 19.711325 5.035566 19.711325
v 19.711325 5.035566 -19.711325
v -19.646446 5.032322 0.000000
v 19.646446 5.032322 0.000000
v 0.000000 5.032322 19.646446
v 0.000000 5.032322 -19.646446
v 0.000000 5.025000 0.000000
v -19.646446 5.032322 10.000000
v 19.646446 5.032322 10.000000
v 0.000000 5.025000 10.000000
v 19.646446 5.032322 -10.000000
v -19.646446 5.032322 -10.000000
v 0.000000 5.025000 -10.000000
v -10.000000 5.032322 -19.646446
v -10.000000 5.025000 0.000000
v -10.000000 5.032322 19.646446
v -10.000000 5.025000 10.000000
v -10.000000 5.025000 -10.000000
v 10.000000 5.032322 19.646446
v 10.000000 5.032322 -19.646446
v 10.000000 5.025000 0.000000
v 10.000000 5.025000 10.000000
v 10.000000 5.025000 -10.000000
vn -0.0000 -1.0000 -0.0000
vn -0.0000 1.0000 -0.0000
vn 1.0000 -0.0000 -0.0000
vn -0.0000 -0.0000 1.0000
vn -1.0000 -0.0000 -0.0000
vn -0.0000 -0.0000 -1.0000
vn -0.9487 -0.3163 0.0008
vn -0.0000 -0.9993 -0.0366
vn -0.0279 -0.9996 0.0001
vn 0.0279 -0.9996 0.0001
vn -1.0000 -0.0053 0.0027
vn -0.0000 -0.0032 -1.0000
vn 1.0000 -0.0053 0.0027
vn -0.0000 -0.0250 -0.9997
vn 0.0005 -1.0000 -0.0005
vn 0.9487 -0.3163 0.0008
vn -0.0000 -0.9889 0.1488
vn -0.0000 -0.7169 -0.6972
vn 0.0008 -1.0000 -0.0000
vn -0.0000 -1.0000 -0.0008
vn -0.0000 -1.0000 0.0008
vn 0.0005 -1.0000 0.0005
vn -0.0008 -1.0000 -0.0000
vn -0.0005 -1.0000 0.0005
vn -0.0005 -1.0000 -0.0005
vn -0.8167 -0.0144 -0.5770
vn 0.8167 -0.0144 -0.5770
vt 0.000000 0.000000
vt 0.000000 1.000000
vt 1.000000 1.000000
vt 1.000000 0.000000
vt 1.000000 0.750000
vt 1.000000 0.500000
vt 1.000000 0.250000
vt 0.750000 0.750000
vt 0.750000 1.000000
vt 0.000000 0.250000
vt 0.000000 0.500000
vt 0.000000 0.750000
vt 0.250000 1.000000
vt 0.500000 1.000000
vt 0.750000 0.000000
vt 0.500000 0.000000
vt 0.250000 0.000000
vt 0.750000 0.250000
vt 0.750000 0.500000
vt 0.250000 0.250000
vt 0.500000 0.250000
vt 0.500000 0.500000
vt 0.250000 0.500000
vt 0.250000 0.750000
vt 0.500000 0.750000
s 0
g Plane.001_Concrete
usemtl Concrete
f 1/1/1 3/2/1 4/3/1 2/4/1
f 8/3/2 5/2/2 9/2/2 12/3/2
f 4/3/2 3/2/2 5/2/2 8/3/2
f 1/1/2 2/4/2 7/4/2 6/1/2
f 2/4/2 4/3/2 8/3/2 7/4/2
f 3/2/2 1/1/2 6/1/2 5/2/2
f 11/4/3 12/3/3 22/3/3 31/5/3 24/6/3 29/7/3 21/4/3
f 6/1/2 7/4/2 11/4/2 10/1/2
f 7/4/2 8/3/2 12/3/2 11/4/2
f 5/2/2 6/1/2 10/1/2 9/2/2
f 11/4/3 12/3/3 16/3/3 15/4/3
f 10/1/4 11/4/4 15/4/4 14/1/4
f 9/2/5 10/1/5 14/1/5 13/2/5
f 9/2/4 12/3/4 18/3/4 17/2/4
f 43/8/2 31/5/2 22/3/2 40/9/2
f 9/2/5 10/1/5 20/1/5 28/10/5 23/11/5 32/12/5 19/2/5
f 12/3/6 9/2/6 19/2/6 34/13/6 26/14/6 40/9/6 22/3/6
f 10/1/4 11/4/4 21/4/4 39/15/4 25/16/4 36/17/4 20/1/4
f 42/18/2 29/7/2 24/6/2 41/19/2
f 37/20/2 30/21/2 27/22/2 35/23/2
f 38/24/2 33/25/2 26/14/2 34/13/2
f 36/17/2 25/16/2 30/21/2 37/20/2
f 39/15/2 21/4/2 29/7/2 42/18/2
f 35/23/2 27/22/2 33/25/2 38/24/2
f 41/19/2 24/6/2 31/5/2 43/8/2
f 23/11/2 35/23/2 38/24/2 32/12/2
f 20/1/2 36/17/2 37/20/2 28/10/2
f 32/12/2 38/24/2 34/13/2 19/2/2
f 28/10/2 37/20/2 35/23/2 23/11/2
f 27/22/2 41/19/2 43/8/2 33/25/2
f 25/16/2 39/15/2 42/18/2 30/21/2
f 30/21/2 42/18/2 41/19/2 27/22/2
f 33/25/2 43/8/2 40/9/2 26/14/2
f 44/1/2 45/4/2 47/3/2 46/2/2
f 51/3/4 55/3/4 52/2/4 48/2/4
f 47/3/2 51/3/2 48/2/2 46/2/2
f 44/1/2 49/1/2 50/4/2 45/4/2
f 45/4/2 50/4/2 51/3/2 47/3/2
f 46/2/2 48/2/2 49/1/2 44/1/2
f 54/4/7 64/4/7 72/7/7 67/6/7 74/5/7 65/3/7 55/3/7
f 49/1/8 53/1/8 54/4/8 50/4/8
f 50/4/9 54/4/9 55/3/9 51/3/9
f 48/2/10 52/2/10 53/1/10 49/1/10
f 54/4/11 58/4/11 59/3/11 55/3/11
f 53/1/12 57/1/12 58/4/12 54/4/12
f 52/2/13 56/2/13 57/1/13 53/1/13
f 52/2/14 60/2/14 61/3/14 55/3/14
f 86/8/15 83/9/15 65/3/15 74/5/15
f 52/2/16 62/2/16 75/12/16 66/11/16 71/10/16 63/1/16 53/1/16
f 55/3/17 65/3/17 83/9/17 69/14/17 77/13/17 62/2/17 52/2/17
f 53/1/18 63/1/18 79/17/18 68/16/18 82/15/18 64/4/18 54/4/18
f 85/18/19 84/19/19 67/6/19 72/7/19
f 80/20/1 78/23/1 70/22/1 73/21/1
f 81/24/20 77/13/20 69/14/20 76/25/20
f 79/17/21 80/20/21 73/21/21 68/16/21
f 82/15/22 85/18/22 72/7/22 64/4/22
f 78/23/1 81/24/1 76/25/1 70/22/1
f 84/19/19 86/8/19 74/5/19 67/6/19
f 66/11/23 75/12/23 81/24/23 78/23/23
f 63/1/24 71/10/24 80/20/24 79/17/24
f 75/12/25 62/2/25 77/13/25 81/24/25
f 71/10/23 66/11/23 78/23/23 80/20/23
f 70/22/1 76/25/1 86/8/1 84/19/1
f 68/16/21 73/21/21 85/18/21 82/15/21
f 73/21/1 70/22/1 84/19/1 85/18/1
f 76/25/20 69/14/20 83/9/20 86/8/20
f 13/2/2 14/1/2 57/1/2 56/2/2
f 14/1/2 15/4/2 58/4/2 57/1/2
f 15/4/2 16/3/2 59/3/2 58/4/2
f 16/3/6 12/3/6 55/3/6 59/3/6
f 9/2/6 13/2/6 56/2/6 52/2/6
f 17/2/2 18/3/2 61/3/2 60/2/2
f 9/2/26 17/2/26 60/2/26 52/2/26
f 18/3/27 12/3/27 55/3/27 61/3/27
