# Blender 5.0.1
# www.blender.org
mtllib Island_Sand.mtl
o Cone
v -41.573479 0.000000 27.778513
v -27.778513 0.000000 41.573479
v -35.355339 0.000000 35.355339
v -46.193974 0.000000 19.134172
v -49.039261 0.000000 9.754517
v -19.134172 0.000000 46.193974
v -9.754517 0.000000 49.039261
v -26.516502 5.000000 26.516502
v -34.645481 5.000000 14.350629
v -31.180111 5.000000 20.833883
v -36.779446 5.000000 7.315887
v -20.833883 5.000000 31.180111
v -14.350629 5.000000 34.645481
v -7.315887 5.000000 36.779446
v -50.000000 0.000000 0.000000
v -49.039261 0.000000 -9.754517
v -46.193974 0.000000 -19.134172
v -41.573479 0.000000 -27.778513
v -35.355339 0.000000 -35.355339
v -27.778513 0.000000 -41.573479
v -19.134172 0.000000 -46.193974
v -9.754517 0.000000 -49.039261
v -37.500000 5.000000 0.000000
v -36.779446 5.000000 -7.315887
v -34.645481 5.000000 -14.350629
v -31.180111 5.000000 -20.833883
v -26.516502 5.000000 -26.516502
v -20.833883 5.000000 -31.180111
v -14.350629 5.000000 -34.645481
v -7.315887 5.000000 -36.779446
v 0.000000 0.000000 50.000000
v 9.754517 0.000000 49.039261
v 19.134172 0.000000 46.193974
v 27.778513 0.000000 41.573479
v 35.355339 0.000000 35.355339
v 41.573479 0.000000 27.778513
v 46.193974 0.000000 19.134172
v 49.039261 0.000000 9.754517
v 0.000000 5.000000 37.500000
v 7.315887 5.000000 36.779446
v 14.350629 5.000000 34.645481
v 20.833883 5.000000 31.180111
v 26.516502 5.000000 26.516502
v 31.180111 5.000000 20.833883
v 34.645481 5.000000 14.350629
v 36.779446 5.000000 7.315887
v 0.000000 0.000000 -50.000000
v 9.754517 0.000000 -49.039261
v 19.134172 0.000000 -46.193974
v 50.000000 0.000000 0.000000
v 49.039261 0.000000 -9.754517
v 46.193974 0.000000 -19.134172
v 35.355339 0.000000 -35.355339
v 27.778513 0.000000 -41.573479
v 41.573479 0.000000 -27.778513
v 7.315887 5.000000 -36.779446
v 0.000000 5.000000 -37.500000
v 14.350629 5.000000 -34.645481
v 20.833883 5.000000 -31.180111
v 36.779446 5.000000 -7.315887
v 31.180111 5.000000 -20.833883
v 34.645481 5.000000 -14.350629
v 37.500000 5.000000 0.000000
v 26.516502 5.000000 -26.516502
vn 0.0366 0.9279 -0.3711
vn 0.1083 0.9279 -0.3569
vn 0.1758 0.9279 -0.3289
vn 0.2366 0.9279 -0.2883
vn 0.2883 0.9279 -0.2366
vn 0.3289 0.9279 -0.1758
vn 0.3569 0.9279 -0.1083
vn 0.3711 0.9279 -0.0366
vn 0.3711 0.9279 0.0366
vn 0.3569 0.9279 0.1083
vn 0.3289 0.9279 0.1758
vn 0.2883 0.9279 0.2366
vn 0.2366 0.9279 0.2883
vn 0.1758 0.9279 0.3289
vn 0.1083 0.9279 0.3569
vn 0.0366 0.9279 0.3711
vn -0.0366 0.9279 0.3711
vn -0.1083 0.9279 0.3569
vn -0.1758 0.9279 0.3289
vn -0.2366 0.9279 0.2883
vn -0.2883 0.9279 0.2366
vn -0.3289 0.9279 0.1758
vn -0.3569 0.9279 0.1083
vn -0.3711 0.9279 0.0366
vn -0.3711 0.9279 -0.0366
vn -0.3569 0.9279 -0.1083
vn -0.3289 0.9279 -0.1758
vn -0.2883 0.9279 -0.2366
vn -0.2366 0.9279 -0.2883
vn -0.1758 0.9279 -0.3289
vn -0.0000 -1.0000 -0.0000
vn -0.1083 0.9279 -0.3569
vn -0.0366 0.9279 -0.3711
vn -0.0000 1.0000 -0.0000
vt 0.296822 0.485388
vt 0.250000 0.490000
vt 0.250000 0.430000
vt 0.285116 0.426541
vt 0.318883 0.416298
vt 0.341844 0.471731
vt 0.350003 0.399665
vt 0.383337 0.449553
vt 0.377279 0.377279
vt 0.419706 0.419706
vt 0.399665 0.350003
vt 0.449553 0.383337
vt 0.471731 0.341844
vt 0.416298 0.318883
vt 0.485388 0.296822
vt 0.426541 0.285116
vt 0.430000 0.250000
vt 0.490000 0.250000
vt 0.485388 0.203178
vt 0.426541 0.214884
vt 0.416298 0.181117
vt 0.471731 0.158156
vt 0.399665 0.149997
vt 0.449553 0.116663
vt 0.419706 0.080294
vt 0.377279 0.122721
vt 0.350003 0.100335
vt 0.383337 0.050447
vt 0.341844 0.028269
vt 0.318883 0.083702
vt 0.296822 0.014612
vt 0.285116 0.073459
vt 0.250000 0.070000
vt 0.250000 0.010000
vt 0.203178 0.014612
vt 0.214884 0.073459
vt 0.181117 0.083702
vt 0.158156 0.028269
vt 0.149997 0.100335
vt 0.116663 0.050447
vt 0.122721 0.122721
vt 0.080294 0.080294
vt 0.100335 0.149997
vt 0.050447 0.116663
vt 0.028269 0.158156
vt 0.083702 0.181117
vt 0.014612 0.203178
vt 0.073459 0.214884
vt 0.070000 0.250000
vt 0.010000 0.250000
vt 0.014612 0.296822
vt 0.073459 0.285116
vt 0.083702 0.318883
vt 0.028269 0.341844
vt 0.100335 0.350003
vt 0.050447 0.383337
vt 0.080294 0.419706
vt 0.122721 0.377279
vt 0.149997 0.399665
vt 0.116663 0.449553
vt 0.158156 0.471731
vt 0.181117 0.416298
vt 0.985388 0.296822
vt 0.990000 0.250000
vt 0.985388 0.203178
vt 0.971731 0.158156
vt 0.949553 0.116663
vt 0.919706 0.080294
vt 0.883337 0.050447
vt 0.841844 0.028269
vt 0.796822 0.014612
vt 0.750000 0.010000
vt 0.703178 0.014612
vt 0.658156 0.028269
vt 0.616663 0.050447
vt 0.580294 0.080294
vt 0.550447 0.116663
vt 0.528269 0.158156
vt 0.514612 0.203178
vt 0.510000 0.250000
vt 0.514612 0.296822
vt 0.528269 0.341844
vt 0.550447 0.383337
vt 0.580294 0.419706
vt 0.616663 0.449553
vt 0.658156 0.471731
vt 0.703178 0.485388
vt 0.750000 0.490000
vt 0.796822 0.485388
vt 0.841844 0.471731
vt 0.883337 0.449553
vt 0.919706 0.419706
vt 0.949553 0.383337
vt 0.971731 0.341844
vt 0.203178 0.485388
vt 0.214884 0.426541
vt 0.367417 0.632582
vt 0.344099 0.604169
vt 0.326773 0.571753
vt 0.316103 0.536579
vt 0.312500 0.500000
vt 0.316103 0.463421
vt 0.326773 0.428247
vt 0.344099 0.395831
vt 0.367417 0.367417
vt 0.395831 0.344099
vt 0.428247 0.326773
vt 0.463421 0.316103
vt 0.500000 0.312500
vt 0.536579 0.316103
vt 0.571753 0.326773
vt 0.604169 0.344099
vt 0.632582 0.367417
vt 0.655901 0.395831
vt 0.673227 0.428247
vt 0.683897 0.463421
vt 0.687500 0.500000
vt 0.683897 0.536579
vt 0.673227 0.571753
vt 0.655901 0.604169
vt 0.632582 0.632582
vt 0.604169 0.655901
vt 0.571753 0.673227
vt 0.536579 0.683897
vt 0.500000 0.687500
vt 0.463421 0.683897
vt 0.428247 0.673227
vt 0.395831 0.655901
s 0
g Cone_Sand
usemtl Sand
f 48/1/1 47/2/1 57/3/1 56/4/1
f 58/5/2 49/6/2 48/1/2 56/4/2
f 59/7/3 54/8/3 49/6/3 58/5/3
f 64/9/4 53/10/4 54/8/4 59/7/4
f 61/11/5 55/12/5 53/10/5 64/9/5
f 52/13/6 55/12/6 61/11/6 62/14/6
f 51/15/7 52/13/7 62/14/7 60/16/7
f 63/17/8 50/18/8 51/15/8 60/16/8
f 38/19/9 50/18/9 63/17/9 46/20/9
f 45/21/10 37/22/10 38/19/10 46/20/10
f 44/23/11 36/24/11 37/22/11 45/21/11
f 35/25/12 36/24/12 44/23/12 43/26/12
f 42/27/13 34/28/13 35/25/13 43/26/13
f 33/29/14 34/28/14 42/27/14 41/30/14
f 32/31/15 33/29/15 41/30/15 40/32/15
f 39/33/16 31/34/16 32/31/16 40/32/16
f 7/35/17 31/34/17 39/33/17 14/36/17
f 13/37/18 6/38/18 7/35/18 14/36/18
f 12/39/19 2/40/19 6/38/19 13/37/19
f 8/41/20 3/42/20 2/40/20 12/39/20
f 10/43/21 1/44/21 3/42/21 8/41/21
f 4/45/22 1/44/22 10/43/22 9/46/22
f 5/47/23 4/45/23 9/46/23 11/48/23
f 23/49/24 15/50/24 5/47/24 11/48/24
f 16/51/25 15/50/25 23/49/25 24/52/25
f 25/53/26 17/54/26 16/51/26 24/52/26
f 26/55/27 18/56/27 17/54/27 25/53/27
f 19/57/28 18/56/28 26/55/28 27/58/28
f 28/59/29 20/60/29 19/57/29 27/58/29
f 21/61/30 20/60/30 28/59/30 29/62/30
f 51/63/31 50/64/31 38/65/31 37/66/31 36/67/31 35/68/31 34/69/31 33/70/31 32/71/31 31/72/31 7/73/31 6/74/31 2/75/31 3/76/31 1/77/31 4/78/31 5/79/31 15/80/31 16/81/31 17/82/31 18/83/31 19/84/31 20/85/31 21/86/31 22/87/31 47/88/31 48/89/31 49/90/31 54/91/31 53/92/31 55/93/31 52/94/31
f 22/95/32 21/61/32 29/62/32 30/96/32
f 57/3/33 47/2/33 22/95/33 30/96/33
f 27/97/34 26/98/34 25/99/34 24/100/34 23/101/34 11/102/34 9/103/34 10/104/34 8/105/34 12/106/34 13/107/34 14/108/34 39/109/34 40/110/34 41/111/34 42/112/34 43/113/34 44/114/34 45/115/34 46/116/34 63/117/34 60/118/34 62/119/34 61/120/34 64/121/34 59/122/34 58/123/34 56/124/34 57/125/34 30/126/34 29/127/34 28/128/34
